<?xml version="1.0" encoding="UTF-8"?>
<svg id="object" xmlns="http://www.w3.org/2000/svg" version="1.1" viewBox="0 0 2727.8 2379.2">
  <!-- Generator: Adobe Illustrator 29.0.1, SVG Export Plug-In . SVG Version: 2.1.0 Build 192)  -->
  <defs>
    <style>
      .st0 {
        fill: #7a7a7a;
      }
    </style>
  </defs>
  <sodipodi:namedview id="base" width="780px" height="5141.8px" bordercolor="#666666" borderopacity="1.0" gridtolerance="10.0" guidetolerance="10.0" objecttolerance="10.0" pagecolor="#ffffff"/>
  <sodipodi:namedview id="namedview58" bordercolor="#666666" borderopacity="1" fit-margin-bottom="0" fit-margin-left="0" fit-margin-right="0" fit-margin-top="0" gridtolerance="10" guidetolerance="10" objecttolerance="10" pagecolor="#ffffff" showgrid="false"/>
  <polygon class="st0" points="1834.1 1558 1833.7 1557.5 1833.2 1557.1 1832.9 1556.5 1832.9 1555.9 1832.9 1555 1833.1 1554.1 1833.2 1553.9 1833.4 1553 1833.7 1552.1 1833.8 1551.7 1833.8 1551.3 1833.8 1550.3 1833.3 1549.9 1832.5 1549.7 1831.7 1549.9 1831.3 1550 1830.9 1550 1830.5 1550 1830.1 1550 1830 1549.9 1829.7 1549.7 1829.3 1549.3 1829.5 1548.7 1829.6 1548.5 1829.8 1548.3 1830.2 1548.2 1830.6 1548 1831.3 1547.7 1832 1547.4 1832.7 1547 1832.9 1546.9 1833.4 1546.6 1833.7 1546.2 1833.8 1545.8 1833.8 1545.2 1833.7 1544.1 1833.3 1543.1 1833.1 1542.6 1832.8 1542.1 1831.7 1540.8 1831.5 1540.5 1829.3 1537.8 1827.9 1536.1 1827.3 1535 1826.6 1533.8 1826 1533.1 1825.9 1532.8 1825.8 1532.4 1825.9 1531.3 1826.4 1530.7 1826.9 1530.1 1827.1 1529.5 1826.9 1528.6 1826.5 1527.6 1826.3 1527.4 1826.2 1527.2 1825.7 1526.2 1825.5 1525.2 1825.5 1524.6 1825.5 1524.4 1825.4 1523.8 1825.3 1523.2 1825.1 1522.6 1824.9 1521.9 1824.7 1521.6 1824.1 1520.9 1822.7 1520 1822.5 1520 1820.2 1519.4 1819.6 1519.2 1819 1518.9 1818.5 1518.3 1818.2 1517.6 1818.2 1517.3 1818.3 1517.2 1818.4 1516.8 1818.7 1516.7 1819.2 1516.5 1819.7 1516.5 1819.9 1516.2 1820.3 1515.9 1820.6 1515.5 1820.5 1514.9 1820.3 1514.5 1820.2 1514.2 1820.1 1514.1 1820.1 1513.6 1820.3 1513 1820.4 1512.8 1820.6 1512.5 1821.1 1512.2 1821.8 1511.9 1822.2 1511.7 1822.9 1511.2 1822.8 1510.8 1822.8 1510.1 1822.2 1509.5 1821.3 1508.8 1821.2 1508.6 1820.6 1507.9 1820.4 1507.5 1820.3 1507.1 1820.4 1506.1 1820.8 1505.8 1821.1 1505.6 1821.6 1505.9 1822 1506.1 1822.5 1506.2 1822.9 1506.2 1823.2 1506 1823.3 1505.6 1823.5 1505.1 1824.3 1504.4 1824.6 1504.1 1825.1 1503.7 1825.9 1503.4 1827.2 1503.1 1827.4 1502.9 1827.5 1502.9 1827.5 1502.5 1827.5 1502.1 1827.2 1501.7 1826.5 1501.4 1825.9 1501.2 1825.3 1500.9 1825 1500.7 1824.9 1500 1824.9 1499.2 1825 1498.5 1825.4 1497.9 1825.9 1497 1826.2 1496.8 1826.5 1496.5 1827.2 1495.7 1827.5 1494.8 1827.6 1493.9 1827.6 1493.5 1827.5 1492.4 1827 1491.2 1826.5 1490.6 1826.3 1490.1 1826.3 1489.8 1826.5 1489 1826.8 1488.4 1826.9 1488.1 1827.2 1487.8 1827.7 1487.3 1828.1 1486.6 1828.4 1486 1828.4 1485.6 1828.1 1485.2 1827.6 1484.6 1826.5 1483.7 1826 1483.2 1825.8 1483.1 1825.4 1482.6 1824.8 1482 1824.4 1481.2 1824.1 1480.5 1823.5 1479.8 1822.5 1479 1822.2 1478.7 1821.8 1478.5 1820.1 1478 1817.8 1477.1 1815.7 1476.5 1813.3 1475.5 1812.1 1475.1 1811.4 1474.6 1810.8 1474.3 1810.7 1474 1810.6 1473.7 1810.6 1473.3 1810.9 1473.1 1811.1 1473 1811.6 1473.1 1812.2 1473.2 1813 1473.4 1813.5 1473.3 1814 1472.8 1814.1 1472.4 1814.1 1472 1813.9 1471.6 1813.6 1471.4 1812.8 1471 1812 1470.7 1811.6 1470.4 1811.4 1470.2 1811 1469.8 1811 1469 1811.4 1468.2 1812.1 1466.5 1812.6 1465.2 1813.1 1464.2 1813.2 1464 1813.4 1463 1813.4 1462.1 1813.1 1460.8 1811.6 1458.2 1810.9 1457.4 1810.6 1456.8 1810.4 1456.2 1810.4 1455.5 1810.9 1454.4 1811.2 1453.6 1811.7 1452.9 1811.9 1452.4 1812.1 1451.9 1812.2 1451.1 1812 1450.2 1811.7 1449.6 1810.9 1448.8 1810 1447.4 1809.5 1446.8 1809.3 1446.6 1808.7 1445.6 1808 1444.8 1807.1 1444 1806 1442.8 1805 1442.3 1804.2 1442 1803.9 1441.9 1802.8 1441.9 1801.7 1442.1 1800.4 1441.6 1799.5 1441 1799.4 1440.8 1799.1 1440.1 1798.8 1439.6 1798.8 1438.6 1798.9 1438.3 1799 1437.9 1799.3 1437.3 1799.8 1436.8 1800.4 1436.2 1800.7 1435.4 1800.6 1434.7 1800.3 1434.3 1799.9 1434 1799.6 1433.9 1799.1 1433.9 1798.7 1433.9 1798.2 1433.9 1796.3 1433.9 1794 1434 1793.5 1434 1792.9 1433.9 1792 1433.9 1791.5 1433.7 1791 1433.6 1790.4 1433.1 1789.9 1432.2 1789.9 1431.4 1790 1430.6 1790.4 1430.3 1791 1430.2 1791.6 1430 1792.4 1430.2 1793.2 1430.3 1794 1430.3 1794.6 1430.2 1795.2 1430 1795.4 1429.9 1795.5 1429.7 1795.5 1429.4 1795.3 1428.9 1795 1428.8 1794.8 1428.6 1794.6 1428.5 1794 1428.3 1793.9 1428.2 1793.5 1428 1793.1 1427.7 1792.9 1427.3 1792.9 1426.9 1792.7 1426.2 1792.4 1425.7 1791.9 1425.3 1790.3 1424.8 1790.1 1424.8 1789.4 1424.6 1789 1424.1 1788.9 1423.9 1788.9 1423.6 1789.1 1422.5 1789.3 1421.7 1789.7 1421.1 1790.1 1420.2 1790.4 1418.9 1790.7 1418.4 1791.2 1417.8 1791.7 1417.3 1792.3 1416.9 1792.5 1416.8 1792.9 1416.8 1793.3 1416.8 1793.5 1416.9 1794 1416.9 1794.2 1416.9 1794.4 1417 1794.9 1417.1 1795.6 1417.4 1796.1 1417.4 1796.6 1417.2 1796.9 1416.9 1796.9 1416.4 1796.6 1416.1 1795.6 1415.4 1795.4 1415.4 1794.9 1415.1 1794 1415 1793.4 1414.8 1793 1414.5 1793 1414 1793.1 1413.7 1793.8 1412.9 1794.9 1412.1 1796.6 1411.2 1797.3 1411.1 1798 1410.5 1798.1 1410.4 1798.3 1410.1 1798.4 1409.3 1798.4 1408.7 1798.4 1408.3 1798.4 1407.4 1798.7 1406.6 1799 1406.1 1799.5 1405.9 1799.9 1406.1 1800.8 1406.2 1801.6 1406.2 1802 1405.9 1802.4 1405.6 1802.5 1405.4 1802.7 1405.1 1803 1404.5 1803.5 1403.9 1803.7 1403.4 1804 1403.2 1804.6 1403 1805.5 1402.6 1806.2 1402.3 1806.8 1401.7 1807.1 1401.1 1807.4 1400.2 1807.7 1399.4 1808.2 1398.6 1808.8 1398.2 1809.1 1397.9 1809.5 1397.3 1809.7 1396.8 1810 1395.9 1810.1 1395 1810.2 1394.2 1810.2 1393.4 1810.2 1392.6 1810.2 1391.4 1809.7 1388.4 1809.7 1387.3 1809.4 1386.3 1809.5 1385.8 1809.7 1385.1 1810 1384.6 1810.3 1384.3 1810.4 1384 1810.7 1383.7 1810.7 1383.4 1810.7 1382.7 1810.2 1382.1 1809.7 1381.8 1808.5 1381.9 1808.3 1382 1807.5 1382.7 1807.1 1383.4 1806.6 1384.1 1806.2 1384.5 1806 1384.6 1805.3 1384.8 1805 1384.7 1804.8 1384.4 1804.6 1384 1803.5 1382.2 1803 1381.1 1802.8 1380.8 1802.6 1380.5 1802.3 1380 1802 1379.6 1802 1378.5 1802.1 1377.7 1802.4 1376.6 1802.5 1376 1802.3 1375.2 1801.9 1374.6 1801.3 1373.7 1801.1 1372.7 1800.9 1372.3 1800.9 1371.5 1801.4 1370.6 1801.9 1369.8 1802.5 1369 1803 1368.2 1803.2 1367.4 1803 1366.7 1802.9 1366.5 1802.7 1365.9 1802 1365.5 1801.4 1365.4 1800.3 1365.5 1799.5 1365.7 1798.6 1365.8 1798.3 1365.7 1798.1 1365.5 1797.7 1365.1 1797.7 1364.5 1798.1 1364.1 1798.6 1363.9 1798.8 1363.8 1799.7 1363.5 1800.5 1363.2 1800.9 1362.7 1801.6 1361.8 1802.7 1359.6 1803.8 1357.9 1804.1 1357.4 1804.5 1356.6 1805.1 1355.5 1805.7 1354.6 1806.4 1353.8 1807 1353.1 1807.2 1353 1807.7 1352.8 1808.6 1352.3 1809.7 1352.1 1811.3 1352.2 1811.9 1352.3 1813.2 1352.4 1813.4 1352.4 1814 1352.3 1814.5 1352.1 1815.3 1351.8 1815.8 1351.3 1816.2 1350.5 1816.5 1349.8 1816.7 1349.3 1816.9 1348.8 1817.1 1348.6 1817.3 1348.4 1817.9 1348.1 1818.1 1348 1818.3 1348 1818.6 1348.2 1819.2 1348.5 1819.8 1348.9 1820.5 1349.2 1820.9 1348.9 1820.4 1326.1 1820.3 1318.8 1819.9 1305.7 1819.3 1276.5 1819 1263.6 1819 1260 1818.2 1226.7 1817 1177.7 1816.9 1172.8 1816.7 1165.8 1815.9 1129.1 1814.8 1079.9 1814.8 1073.2 1814.5 1030.6 1814.3 982 1814 959.6 1814 955.5 1813.8 935 1812.5 885.1 1812.2 870.3 1812.1 869.2 1811.4 835.4 1810.4 786.4 1810.4 785.6 1810.1 774.9 1809.3 737.3 1809.1 722.5 1808.4 687.6 1808.1 676.8 1807.1 638.7 1806.8 617.1 1806.5 589.3 1805.8 540.1 1805.7 533.4 1805.2 531.8 1804.7 527.7 1804.6 526.5 1804.4 525.7 1803.9 521.9 1803.6 521.5 1803 521 1802.3 520.5 1801.9 520.1 1801.4 520.1 1801.1 519.7 1801 519.1 1801.4 518.6 1801.2 518 1800.9 517.7 1800 517.5 1799.6 517.7 1799.1 517.7 1798.5 517.5 1797.9 517.4 1796.6 515.8 1796.6 515.2 1796.1 514.5 1796 514.4 1795.8 513.9 1795.6 513.5 1794.4 511.9 1794.2 511.6 1793.9 511.1 1792.9 511.4 1792.6 511.6 1792.3 511.4 1792.1 510.9 1792.1 510.6 1792.5 510.3 1792.9 510.2 1793.6 510.2 1793.9 509.9 1793.4 509.5 1792.8 509.4 1792.3 509.1 1792.1 508.8 1792.1 507.8 1792 507.3 1791.7 506.6 1791.5 505.8 1792.1 505.2 1792.5 504.8 1792.3 504.5 1792.1 504.3 1791.7 504.2 1791 503.1 1790.7 502 1790.2 501.1 1789.4 499.8 1788 497.8 1786.4 495 1785.3 492.9 1784.3 490.7 1783.5 488.2 1782.8 485.4 1783.4 484.9 1784 484.6 1784 484 1784.2 482.2 1784.2 480.7 1782.6 480.7 1782.1 480.2 1781.6 479.9 1781.5 477.1 1781.6 475.7 1781.9 474.7 1782.3 473.8 1782.1 473.3 1782.6 472.7 1783.1 472.4 1785.2 472.4 1785.5 472.2 1785.5 471.9 1785.2 471.7 1782.3 471.4 1781.9 471 1781.3 469.7 1780.8 469.2 1780.5 468.9 1779.9 468.4 1779.4 468.3 1779.2 467.5 1779.1 466.9 1779.2 466.1 1779.9 465.5 1780.4 465 1780.1 464.7 1779.6 464.8 1779.2 464.5 1778.6 463.1 1778 461.1 1778 459.8 1777.8 458.9 1777.5 458.4 1777.7 457.1 1777.2 456.7 1776.8 455.9 1776.8 454.7 1776.7 454 1776.2 453.2 1775.3 451.2 1774.8 449.6 1775 449.2 1775.8 449.3 1776.8 448.7 1777.2 448.1 1776.8 447.6 1776.1 447.3 1775.1 447.1 1774.5 446.5 1774 445.7 1773.4 444.8 1773.4 443.2 1772.7 442.7 1772.6 442.4 1772.1 441.8 1771.3 441.2 1771 439.6 1771.3 436.5 1771 435.3 1770.5 434.4 1770.2 433.5 1769.1 431.9 1768.7 431 1768 427.8 1767.1 425 1766.8 423.6 1766.5 422.8 1766.2 421.5 1766.4 420.5 1765.6 419.8 1764.8 415 1764.8 412.8 1764.4 412.5 1764.3 411.4 1763.7 410.1 1762.7 408.9 1761.6 408.2 1761.3 407.3 1760.6 406.5 1759.8 405.6 1758.3 404 1755.5 401.5 1752.3 397.9 1750.8 395.7 1750.4 394.3 1750 393.6 1749.6 393.5 1748.4 392.4 1747.3 390.8 1747.1 390 1745.8 388.3 1743.6 383.8 1742.5 382.2 1738.5 375.1 1736.5 373.4 1733.8 369.8 1731 364.4 1732.1 364.4 1731.4 363 1730.5 359.8 1729.6 357.9 1729.3 357.1 1727.5 357.1 1727.4 355.8 1725.6 350.8 1724.7 346.7 1724 342.5 1723.4 340.3 1722.6 337.8 1722.4 337.1 1722.3 333.2 1721.8 330.2 1722.8 330.2 1722.8 329.9 1722.6 329 1723.2 327.9 1723.2 326.5 1723.1 324.9 1722.8 323.7 1722.9 322.6 1723.1 321 1723.9 319.1 1723.9 316.4 1724.5 313.8 1724.8 310.6 1725 309.2 1725.3 309.1 1725.5 309.2 1725.6 309.8 1725.9 310.3 1726.3 310.3 1726.6 310 1726.6 309.1 1726.4 308.1 1726.6 306.5 1727.1 305.3 1727.7 303.9 1727.5 302.9 1728 302.5 1728.8 301.9 1729.1 298.1 1729.4 292.1 1729.4 284.6 1730.7 277.5 1730.5 275 1729.8 269.4 1728.6 264.5 1707.5 264.7 1679.5 265 1661.7 265.2 1648.5 265.3 1633.1 265.3 1628.5 265.4 1627.8 265.4 1601.1 265.8 1573.5 266.2 1549.2 266.3 1517.5 266.5 1506 266.8 1497.7 267.1 1480.9 267.7 1480.4 267.7 1438.3 267.1 1427.7 266.9 1410.6 266.7 1383.2 266.3 1362.6 266.1 1353.4 266 1341.1 265.9 1329.4 265.7 1319.8 265.7 1319.5 265.7 1306.5 265.4 1297.7 265.2 1277 264.8 1248.4 264 1217.3 263.8 1208.3 263.8 1199 263.8 1185.9 263.7 1177.8 263.7 1173.4 263.4 1167.5 263 1156.6 262.8 1148.6 262.8 1108.5 262.7 1058.4 262.4 1057.6 262.3 1008.3 261.3 1004.5 261.1 1004.3 261.1 1002.9 261.2 1001.6 263 1000.3 265 1000 266.6 999.7 268.9 999.7 270.2 999.7 271.3 1000.9 273.2 1003 275.4 1005.8 277.7 1009.2 279.8 1011.7 281.2 1013.7 282 1014.1 282.3 1016.6 283.3 1018.3 284 1020.5 284.9 1022 285.9 1022.9 286.9 1023.5 288.3 1023.6 290.2 1024.1 291.7 1025.3 293.3 1025.8 293.6 1027.4 294.9 1027.6 295.1 1030.1 296.5 1033 297.7 1035.3 298.9 1035.4 299 1037.3 300.1 1039.1 301.7 1041.1 303.7 1042.2 304.4 1043.5 304.8 1044.6 305.6 1045 306 1045.6 306.5 1047.2 308.8 1049.7 312.1 1051.9 314.6 1053.1 316.3 1054.3 318.5 1055.8 320.9 1057.1 322.8 1058.1 323.5 1058.4 323.6 1058.6 323.7 1059.1 323.8 1059.8 324.5 1060 325.3 1060.2 326.2 1060.2 327.3 1060 329.3 1059.7 330.9 1059 332.3 1058.2 334 1057.5 335.8 1056.9 337.8 1056.9 338.5 1056.8 339.6 1056.9 340.2 1057.1 341.4 1057.5 343.2 1058.1 345.6 1058.6 346.7 1059.6 349.1 1060.9 351.9 1062 353.3 1063.5 355.6 1065.5 358.4 1067.3 361.1 1068.7 362.5 1069 362.8 1071 364.6 1072.6 365.8 1074.2 366.6 1076.6 367.4 1078.5 367.8 1080.4 368.5 1081.5 369 1083.3 369.9 1083.6 370.2 1086.1 371.6 1088.5 372.9 1091.4 375.1 1093.9 376.5 1096.4 377.6 1098.4 378.1 1100.6 378.8 1101.4 379 1103.3 379.7 1103.4 379.8 1106.1 381.5 1108.7 382.9 1110.4 383.6 1111.6 384.6 1112.5 385.7 1113.1 387.2 1113.5 388.6 1113.8 390.2 1113.9 392.2 1114.9 393.5 1116 394.1 1117.3 394.4 1117.4 394.5 1119.5 395 1120.8 394.9 1122 395.4 1122.9 396.2 1123.8 397.6 1124 398.7 1124.1 399.1 1124 400.6 1124.2 401.4 1124.2 403.8 1123.7 406.8 1123.3 410.1 1122.9 412.8 1122.8 413.4 1122.8 416 1123.1 418.6 1123.1 418.9 1123.4 420.9 1124.3 424.1 1125.7 426.3 1126 427 1126.4 428.2 1127 430 1127.9 431.5 1128.6 433.5 1129.5 434.8 1129.7 435.7 1129.7 437.2 1129.2 438.4 1128.6 439.6 1127.9 440.7 1127.4 441.9 1127.2 443.2 1127 444.6 1126.9 445.9 1126 447.5 1125.2 448.9 1123.7 451.1 1122.7 452.5 1122.5 454.5 1122.8 456.6 1123.5 458.8 1124.3 460.5 1125 462.4 1125.7 464.7 1126 466.6 1126 468.7 1125.5 470.5 1125.4 470.7 1124.8 472.1 1124.3 473.3 1123.9 474.1 1122.7 476.6 1121.4 479.6 1120.7 482.4 1120.2 485.4 1119.8 487.3 1119.4 488.7 1118.8 490 1118.4 490.7 1117.8 491.5 1117.5 493.1 1117.4 494.4 1117 497 1117.2 497.9 1117.5 499.1 1117.7 501.5 1117.5 503.3 1116.8 504.9 1115.9 506 1114.5 506.9 1112.9 507.5 1112.7 507.5 1110.6 508.1 1108.6 508.6 1107.1 509.4 1105.7 510.3 1105.6 510.4 1103.4 512.1 1102.8 512.5 1102.7 512.6 1101.9 513.2 1100.5 514 1097.9 515.6 1094.9 517.2 1093.4 517.9 1093 518.1 1091 519.4 1089.9 520.3 1088.8 521.3 1087 523.2 1084.9 525.8 1083.5 527.8 1082.7 529.3 1082.3 530.7 1082.3 532.7 1082.5 535.1 1083 537.5 1083 540.4 1082.7 542.3 1082.4 543.7 1081.1 544.9 1079.2 546.6 1078.2 548.1 1077.6 549.6 1077.4 550.6 1077.1 551.6 1077 553.5 1076.6 555.6 1076 557.1 1075.5 558.9 1075.7 560.6 1075.5 563.2 1075.7 567.8 1075.7 570.7 1075.9 574 1076 576.2 1075.7 578 1075.1 579.1 1073.9 580.2 1072.4 581.4 1070.9 582.1 1069.3 582.9 1067.3 583.5 1065.3 583.8 1062.6 584.4 1059.7 585.8 1057.8 587.1 1056.5 588.4 1055.4 590.2 1054.4 591.9 1053.3 592.7 1051.9 593.7 1050.9 594.9 1049.5 596.6 1048.2 598.3 1047 599.8 1045.5 601.3 1043.9 602.4 1042.2 603.3 1040.7 603.8 1038.8 604.1 1036.3 604 1032.7 603.5 1030.2 603.1 1028 602.5 1026.7 602 1025.3 601.5 1023.8 601.3 1022.8 601.2 1022.4 601.2 1021 601.3 1018.9 602.3 1017.4 603.2 1015.7 604 1014.4 604.3 1012.9 604.5 1011.6 604.9 1010.3 605.6 1008.9 606.4 1007.6 607.8 1007.1 608.5 1006.9 609.9 1006.5 611.3 1006 612.5 1005.5 613.3 1004.4 614 1002.3 615.6 999.5 617.8 997.9 619.2 996.2 620.9 994.7 622.3 993.5 623 992.4 623.6 991 623.5 988.9 623.4 988.8 623.4 986.8 623.8 985.3 624.5 983.7 624.9 981.5 625.4 979.2 625.7 977.3 625.9 975.9 626.1 974.3 626.4 972.2 626.6 970.4 626.6 970.3 626.6 968.4 626.7 966.5 626.5 964.1 626.2 962 626 959.6 625.5 958.8 625.3 958.7 625.3 956.6 625.2 956.5 625.2 954.2 625 952.2 624.8 950.3 624.7 948.7 624.8 946.3 624.7 946.1 624.7 943.5 624.8 941.8 625.2 940.3 626 940.2 626.1 938.7 627 937.4 628 935.6 629.2 933.8 630.3 932.1 631.4 929.4 632.6 926.9 633.6 925.6 634 923.4 634.8 922.2 635 921.3 635 918 634.5 916.2 634.2 914.5 633.5 912.6 632.7 911.4 632.2 910 631.8 908.3 631.8 906.9 631.9 905.6 632.2 904.4 632.7 902.6 633.2 900.9 633.6 897.5 634.3 895.8 634.7 894.5 635.2 893.2 636 892.4 636.9 891.6 638.1 891.3 639.5 890.9 640.7 890.8 642.1 890.7 644 890.6 645.5 890.5 647.1 889.9 648.1 889 649.3 888 650.8 887.2 652.6 886.3 654.9 885.8 657.4 885.3 660.4 885.1 663.8 885.1 665.1 885.1 665.5 885 666.2 885.1 668.1 884.7 670 884.5 672 884.2 673.2 883.5 674.6 881.7 677.3 881 678.6 879.6 680.8 878.6 682.3 878 683.7 877.3 685.8 877 686.8 876.2 689.1 875.2 690.5 874.2 691.9 873.6 693 873.3 694.4 873.3 695.9 873.8 697.2 874.4 698.1 875.8 700 877.1 701.6 878.1 703.3 878.7 704.9 879.3 706.4 879.5 708.5 879.8 709.6 880.3 711.2 881.5 713 882.7 714.2 882.8 714.2 883.9 714.8 884.9 715.2 885.8 715.9 886.8 716.8 887.2 718.1 887.5 718.9 887.8 720 888.2 721.2 889.2 722.5 890.2 723 891.7 723.8 893.8 724.2 895.4 724.2 896.7 724.1 896.8 724.1 898.2 723.6 899.2 723.4 899.8 723.3 901.3 723.8 903 724.7 904.6 726.4 905.4 727.8 906.3 729.6 907.8 732.4 909.3 735.5 910.4 737.4 911.3 739.5 912.8 742 914.1 743.9 915.1 745.7 915.6 747.1 915.8 748.4 915.8 750 915.7 752 915.5 753.9 915.3 755.1 915.3 756.3 915.4 757.7 915.5 759.6 916 762.2 916.2 764.5 916.1 767.2 915.9 770.6 915.8 773.8 915.5 776.1 915.3 778.2 915 780 914.5 782.6 914 784.4 913.5 785.7 913.2 786.5 912.7 787.4 912.5 788.7 912.7 789.9 912.9 791.5 913.4 792.6 913.7 793.8 913.7 794.9 913.5 796 913.2 797.1 912.7 798.9 912 801.7 911.2 804.5 910.3 806.9 909.5 807.9 908.4 808.9 907.3 809.5 906 810.2 905.8 810.4 904.7 811.2 903.6 811.8 902.4 812.2 901.3 812.6 900.5 813.1 899.8 813.7 899 814.6 896.6 817.5 895.1 819.4 893.4 821 891.3 823.5 889.3 825.8 888.6 827.6 887.4 830 886.2 832 885.2 833.4 883.8 834.6 882.8 835.5 881.7 836.2 880.6 837.3 880 838 879.4 839.1 878.3 840.3 876.9 841.4 876.1 843 875.6 844.8 875.4 846.2 875.9 848 876.6 851.2 876.7 853.4 876.5 856.2 876.1 857.6 875.7 859.3 875.1 861.4 874.6 862.7 873.8 864.1 873.2 865.3 872.2 866.7 871.7 867.8 871.1 868.9 870.8 870.4 870.3 872 869.9 873.7 869.7 874.9 869.8 877.2 870.2 879.3 870.4 881 870.3 883.5 870.1 885.4 869.8 887.9 869.3 889.9 868 892.7 867 894.1 865.8 895.3 864.7 896.2 863.2 897.2 861.8 898.1 858.9 899.6 857.3 900.8 855.2 902.1 852.7 903.6 850.9 904.6 850.4 904.9 849 905.2 847.1 905.2 845.7 905.2 843.9 905 842.1 904.6 841.4 904.5 840.5 904.3 838.8 904.3 837 904.3 835.2 904.6 833.2 904.8 831 905.3 828.3 906.2 825 907.4 822.4 908.4 816.8 910.6 812.7 912.3 810 913.4 808.3 914.2 806.6 915.5 804.8 917 803.2 918.2 801.7 920 799.4 921.8 797.2 923.8 794.9 925.5 792.9 927.3 791.9 928.2 791 929.9 790.1 931.7 789.8 933.5 789.8 935 790.6 936.5 791.8 937.6 792.7 938.4 793.9 938.7 795.5 939.5 796.6 940.6 798.1 942 799.2 943.4 800 944.7 800.8 946.3 801.9 949.8 802.3 951.5 802.3 954.2 802.1 955.9 801.7 958.4 800.9 961.4 799.8 964.1 799.1 965.8 798.5 968.1 797.9 970 797.9 971.7 797.6 973.9 798 976 798.9 978 800.2 980.8 800.9 982.4 801.3 984.4 801.2 986.3 800.6 988 799.6 989.2 798.1 990.3 797 990.9 796.5 991.3 794.3 991.6 791.6 992.1 789.3 992.4 788.1 992.8 786.5 993.3 784.7 994.7 782.8 996.3 781.4 997.4 780.1 998.8 779 999.9 777.9 1001.5 777.2 1002.7 776.1 1004.3 775 1006.4 774.2 1008.5 773.6 1010.3 773.3 1011.7 772.7 1014.2 772.1 1015.6 771.3 1017.3 770.7 1018.5 770.1 1019.4 769.5 1020.7 769 1022.4 768.4 1024.6 767.7 1026.3 767.6 1026.4 767.1 1027.8 766.6 1029.4 766.6 1030.7 767 1031.6 767.3 1032.7 767.2 1033.6 767 1034.5 766.4 1035.8 765.7 1037.3 765.3 1037.8 764.4 1039 763.6 1039.9 763.1 1041.3 763.1 1042.4 763 1044 763 1045.5 762.8 1046.9 762.6 1048.3 762.4 1050 762.3 1051 762.3 1052.1 762.4 1053.2 762.4 1054.1 762.4 1055.1 762.3 1056 761.9 1057.1 761.4 1058.2 761.2 1059.7 760.6 1061.2 760.5 1062.5 760.6 1064.2 761 1066 761.3 1067.4 761.3 1069 761 1070.5 760.6 1072.2 760.4 1073.3 760.5 1075.2 760.5 1076.6 760.4 1078.7 760.8 1081.3 761.2 1085.2 762.1 1088.4 762.5 1091.6 763 1095.2 763.9 1098.9 764.7 1101.2 765 1102.6 765.1 1104.3 765.1 1105.8 764.8 1107.2 764.7 1109 764.4 1110.1 764.4 1111.5 764.5 1112.7 764.8 1113.4 765.3 1114.4 766.9 1117.1 769 1120.3 769.9 1122.7 770.6 1125.1 771.3 1128 772.2 1130.3 773.5 1132.2 774.6 1134.3 775.4 1136.4 776.5 1138.7 778.3 1141.3 778.7 1141.7 781.2 1144.9 782.3 1146.8 782.9 1148.3 783.2 1149.9 783.2 1151.1 783.1 1152.2 782.3 1153.6 781.4 1154.7 780.5 1155.6 779.7 1156.7 778.5 1157.9 778.4 1158 777.2 1159.4 776.2 1161.4 775.8 1163.1 775.6 1164.9 775.3 1167.1 775.6 1168.6 775.9 1170.2 776.7 1172.8 777.7 1175.1 778.7 1177.4 779.9 1179.3 781 1180.2 782.4 1181.1 784.6 1182.3 786.9 1184 788.4 1185.1 790.2 1186.4 792 1188.3 794.5 1191.2 795.7 1192.7 796.6 1194.4 797.1 1195.8 797.5 1197.4 797.5 1199.1 797.2 1200.6 796.6 1202.1 796.4 1203.3 796.3 1204.4 796.3 1206.9 796.2 1207.4 796.1 1208.2 795.7 1209.3 795.2 1210.5 794.9 1212.1 795 1213.5 795.1 1214.9 795.5 1216.4 795.8 1217.9 796.9 1219.1 798.4 1221.2 799.9 1222.7 801.3 1224.3 802.8 1225.6 803.8 1226.5 805.5 1228.1 807.8 1229.8 809.8 1231.5 810.8 1232.5 811.1 1232.8 811.7 1233.9 812.6 1234.9 813.7 1235.7 815.2 1236.6 817.1 1238 819.6 1239.8 820.6 1241.3 821.7 1242.8 822.7 1244.4 823.6 1245.5 824.8 1246.9 825.5 1248.2 826.3 1249.6 827.2 1250.9 828.1 1252.3 829.5 1253.8 830.9 1255.1 832.3 1256.1 834 1257.4 835.4 1258.2 836.7 1258.9 838.1 1259.5 839.8 1260.3 841.5 1261.2 843.7 1262.9 844.1 1263.3 844.5 1263.6 845.1 1264.7 845.7 1265.9 846.1 1267.5 846.2 1269.1 846.4 1270.3 846.4 1271.9 846.6 1272.7 846.8 1273.5 847.4 1275.7 848.6 1278.1 849.8 1279.7 851.3 1281.3 853.1 1282.2 855.8 1282.7 855.9 1282.7 859.9 1283.2 862.1 1283.2 864 1284.3 865.6 1285.6 866.9 1287.1 867.4 1288.4 868.8 1292.4 870.3 1295.3 871.8 1297.6 873.1 1299.4 874.1 1301.1 874.5 1302.3 874.8 1303.9 874.9 1305.6 875.2 1306.9 875.6 1308.3 876.3 1309.5 877.1 1310.8 878.7 1312.5 880.4 1314.5 882.3 1316.7 885.5 1319.4 887.8 1321.5 889.5 1322.4 890.9 1323.7 892.5 1324.7 893.7 1325.3 895.1 1325.8 896.2 1326.2 897 1326.6 898.1 1327.2 899.5 1327.9 900.6 1328.5 901.6 1329 903.5 1329.8 904.9 1330.1 906 1330.9 906.9 1331.6 907.3 1332.6 907.6 1333.4 907.8 1333.8 908.4 1334.9 909.1 1335.8 910 1336.8 911.5 1338.2 913.9 1340.3 915.7 1341.6 917.3 1342.4 919.3 1344.1 920.8 1345.5 922.3 1346.7 924.2 1348 925.4 1348.7 926.8 1349.1 926.9 1349.2 928 1349.6 929.2 1350.3 930 1351.1 931.5 1352.5 932.6 1353.5 933.6 1354.3 933.7 1354.4 935 1355.8 936.3 1357.1 937.4 1358.4 939 1360.1 940.5 1361.4 941.6 1362 942.5 1362.6 943.5 1363.3 945.2 1364.7 945.5 1365.1 946.5 1366.2 948.1 1368.5 950.2 1371.1 951.7 1373.1 952.5 1374.2 953 1375 954.6 1377.2 956.2 1379.1 957.1 1379.8 957.6 1380.2 958.7 1380.9 960.4 1382.1 961.5 1383.1 962.2 1383.7 962.8 1385 963.7 1386.7 964.2 1388.3 964.3 1389.6 964.8 1391.6 965 1393.3 965.1 1393.8 965.3 1394.6 965.4 1396.1 965.9 1397.5 966.2 1399 966.5 1400.4 966.2 1402.2 966.2 1403.8 966.2 1405.5 966.5 1406.9 967.1 1408.5 967.6 1409.9 968 1411.5 968.2 1413.2 968 1415.4 968.1 1417.4 968.2 1419.6 968.6 1421.5 969 1423.5 969.5 1424.9 970.6 1427 971.6 1428.5 972.5 1429.9 973.4 1431.7 974.1 1433.4 974.9 1435 975.1 1436.3 975.2 1437.2 975.2 1438.7 974.7 1440.2 974.1 1441.7 973.3 1442.9 972.3 1444.2 971.5 1445.2 970.4 1446.2 969.9 1447 969.4 1448.1 968.6 1449.5 967.7 1451.4 967.1 1452.8 966.6 1453.7 966.3 1454.9 966.8 1456 967.7 1457.2 968.3 1458.1 969 1459.2 969.4 1460.3 970.5 1463.1 971.1 1464.6 971.2 1466.2 971.2 1467.5 971.3 1468.6 972 1469.9 973 1471 973.9 1471.9 974.4 1472.7 975.3 1473.9 976.1 1476 976.4 1477.7 976.4 1479.5 976.3 1481.7 976.1 1484.3 976.3 1485.8 976.3 1487 977.3 1489.1 978 1491.2 978.6 1493 979.1 1494.6 979.5 1496.2 979.7 1497.6 980.5 1499.1 981.1 1500.2 981.9 1501 982.5 1501.8 983.5 1502.7 984.5 1503.7 985.5 1504.6 986.1 1505.4 986.8 1506.2 987.2 1507.5 987.7 1508.4 988.8 1510.1 990 1511.3 991.8 1512.5 993.7 1513.8 996.4 1515.6 998.6 1516.6 1000.1 1517.2 1001.9 1518 1003.3 1518.3 1005.1 1518.1 1006.9 1517.7 1008.6 1517.1 1010.4 1515.9 1011.6 1515 1012.9 1513.8 1014.4 1512.3 1015.7 1510.8 1017.3 1509.1 1018.6 1507.7 1020.3 1506.8 1021.4 1506.1 1022.1 1505.2 1023.7 1503.3 1024.6 1501.7 1026.3 1499.4 1027.6 1497.1 1028.1 1495.5 1028.2 1494.3 1028.5 1492.7 1029 1491 1029.5 1490 1029.6 1489.9 1030.5 1488.4 1031.5 1486.8 1032.7 1486 1034.1 1485.2 1035.6 1484.8 1037 1484.5 1037.5 1484.4 1038.2 1484.5 1038.9 1484.6 1040.3 1484.7 1041.6 1485 1043.2 1485.4 1045.4 1485.6 1048.3 1485.9 1050.5 1486.4 1052.5 1487.1 1054.9 1487.8 1057.1 1489 1059.6 1490.3 1061.7 1491.8 1065.1 1493.8 1067.3 1495.3 1069.1 1496.6 1070.8 1497.6 1073.1 1498.4 1075 1499.2 1076.9 1499.5 1079.9 1499.5 1081.8 1499.7 1083.2 1499.8 1083.4 1499.8 1085.5 1500.1 1087.7 1500.5 1089.1 1501 1090.9 1501.9 1092.2 1502.5 1093.8 1503.5 1097.1 1505.4 1099 1506.9 1100.9 1508.6 1102.5 1510 1103.9 1511.3 1105.2 1512.6 1107 1513.7 1108.3 1514.3 1109.5 1515 1111.1 1515.7 1112.5 1516.5 1114.1 1517.4 1115.9 1518.5 1119.1 1520.7 1121.8 1522.6 1124.5 1524.4 1126 1525.1 1127 1526 1127.6 1527.3 1128.2 1528.9 1128.5 1530.4 1128.3 1532 1128 1533.7 1127.5 1536.1 1126.8 1538.2 1126.4 1539.9 1125.7 1541.5 1125.6 1541.7 1124.9 1542.9 1124.8 1543.1 1123.5 1544.5 1120.6 1547.2 1118.3 1548.5 1116.5 1549.7 1115.2 1550.4 1114.2 1551.3 1113.3 1552.2 1112.6 1553 1112.3 1553.3 1112.2 1553.4 1111.5 1554.4 1110.6 1555.7 1110 1556.9 1109.5 1558.2 1109 1559.2 1108 1560.5 1107 1561.4 1106.3 1562 1105.2 1562.9 1104.3 1563.6 1103.2 1564.5 1102.4 1565.5 1101.7 1566.4 1100.9 1567.9 1100.2 1569.8 1100 1571.8 1100 1573.6 1100.1 1575.2 1101 1577.3 1101.8 1578.6 1102.7 1579.9 1103.7 1580.9 1105 1582.5 1105.9 1584.2 1107 1586.6 1107.8 1589.1 1108.3 1591.1 1108.4 1591.6 1108.6 1593.8 1109.1 1596.6 1108.9 1599.4 1108.9 1601.3 1108.4 1603.4 1107.9 1604.9 1107.3 1606.9 1106.3 1608.8 1105.2 1611.6 1103.5 1614.1 1101.7 1616 1098.2 1618.9 1096.1 1620.5 1094.9 1621.9 1093.9 1623.3 1093 1624.5 1091.3 1626.9 1090 1629.1 1089.2 1630.6 1088.3 1632.4 1086.7 1635.4 1086.6 1635.5 1085.9 1637.5 1085.2 1639.2 1085.1 1639.6 1084.7 1641.1 1083.6 1644.4 1082.7 1646.9 1082.2 1649 1081.7 1650.7 1081.2 1653.2 1080.9 1655.7 1080.6 1657.9 1080 1662.1 1079.1 1665.2 1078.2 1667.5 1076.9 1670.1 1075.8 1672.4 1074 1674.5 1072.7 1675.6 1071.3 1676.6 1070 1678 1068 1680.6 1066 1682.4 1064.6 1684 1063.4 1685.5 1062.5 1686.9 1061.4 1688.8 1060.6 1690.7 1059.8 1692.4 1059.7 1694.1 1059.3 1695.8 1058.8 1697.7 1058.3 1699.2 1057.4 1700.9 1056.7 1702.6 1056 1704.5 1055.6 1706 1055.3 1707.7 1055.3 1709.3 1055.1 1711.5 1055.1 1713.1 1055.1 1715.1 1054.9 1719.6 1054.9 1723.1 1055.7 1726.2 1056.2 1728.5 1056.7 1731 1057.2 1733.2 1057.7 1735.4 1058.3 1737.7 1059.3 1740.9 1060.3 1743.2 1061 1745.2 1062.2 1747.3 1063.3 1749 1064.4 1750.5 1065.4 1751.8 1066.5 1753.4 1068.5 1755.5 1069.5 1756.3 1070.9 1756.9 1071.9 1757.5 1073.7 1758.1 1075.3 1758.8 1077 1759.7 1078.8 1761 1080.1 1762.3 1081.4 1763.9 1082.3 1765.5 1083.3 1767.5 1084.3 1769.6 1086.3 1773.3 1087.8 1776.1 1088.1 1776.6 1088.2 1776.8 1090.7 1780.3 1093.1 1783.2 1095 1784.8 1097.5 1786.8 1099.9 1788.7 1100.1 1788.9 1103.5 1791.4 1106.2 1792.9 1108.2 1793.9 1110.7 1795 1112.6 1795.7 1116.3 1796.6 1118.2 1797.2 1119.9 1798 1121.4 1798.7 1122.5 1800.3 1123.1 1801.9 1123.6 1803.6 1124 1805 1124.8 1806.9 1126.1 1809.1 1128 1810.8 1130.9 1812.8 1134.1 1814.4 1136.7 1815.2 1139.6 1816.3 1141.4 1817.1 1142.8 1818.4 1143.9 1819.4 1145.2 1821 1146 1821.8 1147.5 1823.2 1148.6 1824.5 1149.4 1826 1150.6 1827.6 1152.7 1829.8 1154.3 1831 1155.9 1832.4 1157 1833.1 1160.4 1833.5 1168.2 1831.8 1172.1 1830.3 1173.5 1834.3 1176.3 1834.1 1176.3 1836.1 1173.9 1838.7 1170.3 1840.9 1166.5 1840.7 1165.9 1843.1 1162.5 1845.2 1162.8 1848.6 1166 1854.6 1166.5 1855.6 1167.8 1858 1169.4 1860.7 1171 1862.4 1172.7 1863.5 1175.1 1864.2 1178 1864.9 1180.1 1865 1182.8 1864.6 1184.4 1863.9 1186.5 1862.6 1188 1861.3 1189.4 1859.8 1190.7 1858.3 1192 1856.7 1193.5 1855.7 1194.6 1854.8 1195.9 1853.7 1196.8 1853.3 1197.7 1853.2 1197.8 1853.2 1198.8 1853.2 1200.1 1854 1201.2 1854.9 1204.5 1857.4 1206.6 1858.8 1207.6 1859.8 1208.6 1860.9 1209.2 1861.7 1209.3 1861.8 1210.4 1863.6 1211.1 1864.6 1212 1865.7 1212.7 1866.5 1213.5 1867 1214.7 1867.1 1215.8 1867.2 1217.6 1867.3 1219.4 1868 1221.4 1869 1222.8 1869.9 1223.9 1870.4 1225.1 1871.2 1226.5 1872.5 1228 1874 1229.3 1876.3 1231.2 1878.7 1233.8 1881.4 1235.9 1883.1 1238.5 1884.7 1240.2 1885.6 1242.9 1887 1243.4 1887.5 1244 1887.8 1245.3 1889.4 1246.6 1891.3 1247.7 1893.1 1248.2 1894.5 1248.1 1896.1 1247.9 1897.7 1247.2 1899.5 1246.4 1901.4 1245.8 1902.8 1245.5 1904.1 1246 1905.4 1246.7 1906.2 1247.9 1907.1 1249.2 1907.8 1249.3 1907.8 1250.5 1908.1 1251.7 1908.2 1253.9 1908.6 1256 1909 1257.9 1909.4 1259.5 1910.3 1260.6 1911 1261.7 1911.9 1262.4 1913.2 1263.3 1914.6 1263.8 1916 1264.1 1916.8 1265.1 1917.7 1266.1 1918.6 1266.2 1918.7 1267.5 1919.5 1269.7 1920.4 1272.4 1921 1275.1 1921.8 1278.5 1922.6 1281.2 1923.4 1283.5 1924.1 1283.6 1924.2 1285.5 1925.3 1286.7 1926.3 1288.1 1927.8 1288.6 1928.9 1288.7 1930.2 1288.7 1931.4 1288.4 1932.3 1288.2 1933.4 1288 1934.7 1287.8 1936.2 1287.9 1938 1287.9 1939.2 1288 1941.3 1287.9 1942.5 1287.7 1943.4 1287.7 1944.2 1287.8 1945.1 1288.5 1946.1 1289 1946.7 1289.5 1947.3 1289.8 1948 1290.7 1949.5 1292.3 1951.4 1294.6 1953.5 1296.3 1955.7 1297.5 1957.7 1298.2 1959.3 1298.7 1960.8 1298.7 1962.2 1298.4 1963.3 1297.4 1964.4 1296.5 1964.9 1295.3 1964.9 1293.9 1965.1 1292.1 1965 1289.7 1964.5 1288.5 1964.7 1288.3 1964.8 1287.5 1965.2 1287 1965.8 1286.6 1966.9 1286.4 1968.1 1286.3 1970.3 1286.2 1970.5 1286.1 1973 1286.7 1974.7 1287.2 1978 1288.5 1981.6 1290 1984.6 1290.9 1986.4 1292.1 1989 1292.8 1991.2 1293.5 1993.3 1294.2 1995.4 1295.5 1997.8 1296.9 1999.7 1298.1 2001.8 1299.1 2003.7 1300.7 2005.2 1302.3 2007.1 1304.8 2009.2 1306.3 2010.7 1307.5 2012.3 1308.3 2014 1309.8 2017.4 1310.5 2020.2 1311.5 2023.7 1312.2 2027 1313 2029.7 1313.1 2031.2 1313.3 2033.4 1313.1 2035.3 1312.8 2037.3 1312.5 2039.5 1312 2041.4 1311.2 2044.4 1310.5 2045.8 1309.2 2046.8 1307.9 2047.5 1305.6 2048.1 1303 2048.5 1300.5 2048.9 1298.6 2049.1 1297.4 2049.7 1297.1 2049.7 1296.3 2050.1 1295.2 2051.1 1293.8 2052.4 1292.8 2053.6 1291.8 2054.5 1290.9 2055.8 1289.3 2057.6 1289 2059.1 1288.5 2060.9 1288 2063.1 1287.5 2065 1286.9 2067 1286.9 2068.6 1287 2070.1 1287.7 2071.7 1288.6 2073.4 1289.4 2074.7 1290.9 2076.7 1292.3 2078.1 1293.4 2078.6 1295 2078.9 1296.4 2078.9 1297.7 2078.7 1299.3 2078.6 1299.8 2078.6 1301.6 2078.5 1301.7 2078.6 1302.5 2079.1 1303 2079.9 1303.1 2081.4 1303 2083 1302.5 2084.3 1302 2085.7 1301.4 2086.9 1300.9 2088.5 1300.7 2089.6 1300.7 2090.8 1301.4 2093.2 1302.3 2096.3 1303.1 2099 1303.6 2101.1 1304.7 2103.2 1305.6 2105.3 1307.1 2107.4 1308.4 2109.6 1309.5 2112.1 1310.3 2114.1 1311.4 2116.5 1312.5 2118.3 1313.7 2120.2 1315.2 2121.7 1316.4 2122.8 1317.8 2123.9 1318.8 2124.4 1319.6 2125.1 1320.6 2126.2 1321.4 2127.3 1322.5 2128.7 1323.3 2129.9 1324.5 2131.7 1325.5 2133.2 1325.9 2134.2 1326.2 2135.4 1326.2 2136.9 1326.2 2138.4 1326.1 2139.7 1325.8 2140.9 1324.9 2142.8 1324.1 2144.7 1323.6 2146.7 1323.3 2148.4 1323.8 2150 1325 2151.3 1326 2152.1 1327.8 2153.4 1329.7 2154.7 1332.3 2156.3 1335 2157.4 1336.7 2158.5 1338.7 2159.5 1341.3 2160.9 1343.1 2162.2 1344.4 2163.3 1345.5 2164.4 1346.6 2165.8 1347.8 2167 1348.7 2168 1349.8 2169.3 1350.6 2169.6 1351.5 2169.7 1352.9 2169.9 1354.1 2169.4 1355 2168.5 1356.3 2167.1 1357.7 2165.6 1358.4 2164.6 1358.7 2163.6 1359 2162.2 1359 2160.8 1358.7 2159.1 1358.1 2157.8 1357 2156.5 1355.8 2155.2 1354.7 2154.4 1353.9 2153.9 1352.8 2153.6 1351.1 2152.7 1350 2152.1 1348.3 2151.2 1347 2150.2 1346.1 2149.4 1345.1 2148.2 1344.6 2147.2 1344.5 2145.3 1344.7 2144.1 1345.5 2143.5 1361 2143.8 1361.9 2145.1 1363.1 2148.1 1364.3 2151.6 1365.9 2153.5 1367.7 2154.8 1369.6 2155.8 1370.6 2156.3 1372 2157.3 1372.7 2157.6 1373.8 2158.9 1374.4 2159.6 1374.5 2159.8 1375 2161 1375.3 2161.9 1375.3 2162.1 1375.6 2164 1375.9 2166.5 1375.9 2169.2 1376.3 2171.5 1376.9 2173.4 1378.1 2174.7 1379.4 2175.4 1380.6 2175.6 1382.7 2175.5 1384.7 2175 1386.2 2174.2 1388.1 2173.2 1391 2172 1393.3 2171.1 1390.2 2168.8 1387.6 2166.8 1383.2 2162 1380.5 2156.2 1380.3 2155.4 1380.2 2155 1380 2151.5 1380.5 2148.1 1380.8 2147.1 1381.2 2145.2 1383 2142.1 1383.6 2141 1384.6 2139.3 1384.7 2139.1 1392.6 2130.6 1393 2130.1 1397.8 2124.9 1398.7 2123.8 1399.1 2123.2 1402.6 2116.2 1405.9 2109.5 1408.1 2106.3 1420.6 2093.8 1428.1 2088.5 1428.6 2088.3 1433.6 2086.5 1441.2 2086.1 1448.3 2086.8 1450.1 2087.2 1453.5 2088.2 1455.4 2089 1456.6 2089.5 1460.3 2091 1468.1 2094.6 1472.6 2096.4 1478.8 2099 1486.6 2102.4 1496.3 2109.5 1496.5 2109.7 1503.7 2115.7 1504 2115.9 1505.9 2116.6 1510.1 2116.5 1511.4 2116.4 1512.5 2116.6 1514 2116.8 1518.4 2118.2 1520.4 2119.6 1526.2 2121.9 1530.8 2123.2 1534.3 2124.6 1535.9 2125.4 1537.2 2126.1 1540.2 2128.6 1540.5 2128.8 1550.2 2136.9 1550.5 2137.2 1554 2140.1 1555.4 2140.8 1556.8 2141.5 1557.6 2141.7 1560.5 2142.5 1563.3 2142.8 1564.2 2142.9 1569.8 2142.6 1570.7 2142.4 1571.6 2142.2 1573.4 2141.5 1575.6 2140.1 1578 2137.8 1581 2133.7 1581.7 2132.6 1582.7 2130.8 1585.2 2126 1585.3 2125.8 1588.4 2118.5 1589.2 2114.4 1589 2111.1 1586.3 2103.5 1584.3 2097.9 1581.9 2093.2 1579.4 2090 1578.9 2089.4 1577.3 2088.1 1577.1 2088 1575.9 2087.2 1574.5 2084.9 1571.1 2078.9 1568.2 2076.2 1566.6 2074.7 1565 2072.4 1564.7 2071.7 1564.4 2069.7 1564.2 2068.3 1564.3 2067.4 1564.7 2065 1565.6 2062 1566 2060.8 1567.1 2058.3 1569.1 2053.9 1572.6 2045 1572.7 2044.5 1573.7 2040.4 1574 2039.2 1574.3 2035.6 1574.7 2030.9 1576.1 2028 1578.6 2024.7 1579.3 2024.2 1582.9 2021 1587.3 2019.2 1589.2 2018.2 1590.3 2017.7 1590.9 2017.6 1591.7 2017.3 1593.2 2017.1 1593.7 2017.3 1595.5 2018 1598.8 2020.5 1600.5 2021.8 1602.4 2023.3 1602.9 2023.6 1604.3 2023.7 1605.3 2023.8 1606.1 2023.7 1608.8 2022.4 1611.5 2018.8 1613.1 2016.7 1616.4 2013.4 1620.7 2010.3 1621.6 2009.8 1623.5 2008.9 1624.4 2008.5 1633.6 2005.9 1638.6 2005.6 1639 2005.6 1648.1 2004.9 1650.6 2004.7 1651.8 2004.5 1653.3 2004.1 1660.2 2002.2 1661.1 2002 1663.5 2001.4 1664 2001.2 1665.2 2001 1667.4 2000.6 1668.3 2000.5 1669.5 2000.3 1670.7 2000.2 1674.3 2000.1 1676.7 2000 1681.4 1998.3 1683.6 1996.1 1684.6 1994.3 1685.5 1992.1 1686.1 1988.5 1686.1 1986.4 1685.9 1983.6 1685.7 1983.2 1684.3 1979.7 1683.4 1978.8 1682.4 1978.1 1679.9 1976 1679.7 1975.9 1678.9 1975 1678.1 1973.8 1677.5 1972.8 1676.7 1971.5 1676.2 1970.9 1671.5 1966.8 1670.5 1966 1668.5 1963.5 1667.6 1962 1666.6 1957.6 1665.3 1952.7 1665 1951.8 1662.1 1944 1661.9 1943.2 1660.9 1939.7 1660.9 1936.9 1661 1936 1661.3 1934.1 1661.6 1933.2 1661.9 1932.2 1663.2 1929.6 1667.6 1922.5 1671.2 1918.1 1675.2 1915.3 1677.4 1913.8 1680.1 1912.2 1680.6 1911.9 1685.8 1908.9 1688.9 1906.1 1692 1900.5 1692.2 1900.1 1693.7 1897.3 1694.2 1893.6 1694.3 1892.8 1694.6 1891 1694.8 1889.7 1695 1888.6 1695.8 1887.2 1695.6 1886.1 1695.5 1885.5 1695.1 1884.4 1694.9 1883.9 1694.6 1883.5 1694 1883 1693.5 1882.9 1693.1 1882.8 1691.8 1882.8 1691.6 1882.9 1690.3 1883.3 1689.7 1883.6 1689.4 1883.7 1688.6 1884.4 1687.6 1884.8 1686.4 1885.2 1685.1 1885 1683.7 1884.4 1682.2 1883.4 1682 1883 1681.3 1881.7 1680.6 1880 1680.6 1879.8 1680.1 1878.4 1680.1 1878.1 1680.1 1877.1 1680.2 1876.1 1680.5 1875.5 1681.3 1875 1682.2 1874.8 1683.2 1875 1684.5 1875.5 1685.1 1875.8 1686.9 1876.5 1688.7 1877.4 1689.3 1877.6 1690 1877.8 1691.6 1877.9 1692.7 1877.8 1694 1877.4 1694.1 1877.4 1695 1876.9 1695.4 1876.6 1695.7 1876.4 1695.8 1876.3 1696.1 1875.9 1696.4 1874.5 1696.4 1874.3 1696.4 1873.4 1696.1 1872.4 1695.3 1871.5 1694.6 1871.1 1693.9 1870.7 1691.7 1869.8 1689.2 1868.6 1687.6 1867.7 1685.8 1866.3 1684.6 1864.5 1683.9 1863.2 1683.1 1861.7 1682.6 1860.6 1681.8 1859.3 1681.1 1858.1 1680.3 1856.8 1680 1856.3 1679.7 1855.9 1679.1 1855 1678.6 1853.8 1678.1 1852.8 1678.1 1851.7 1678.2 1851.2 1678.3 1850.8 1678.6 1850.2 1679.2 1849.9 1679.5 1849.8 1680 1849.8 1680.8 1850.1 1681.6 1850.5 1682.8 1851.4 1683.6 1852.1 1684.5 1852.8 1686.1 1853.8 1687 1854 1688.3 1854.2 1689.3 1854.2 1690.2 1854.2 1691.3 1854 1691.5 1854 1692.1 1853.8 1693 1853.5 1693.2 1853.5 1693.5 1853.5 1694.4 1853.6 1694.7 1853.7 1695.2 1854 1695.7 1854.4 1696.6 1854.8 1697.2 1855 1697.4 1854.9 1698.1 1854.7 1698.4 1854.4 1698.7 1854.1 1699.1 1853.2 1699.3 1852.3 1699.2 1851.8 1699.2 1851.2 1699.1 1850.8 1698.9 1849.9 1698.2 1848.5 1697.5 1847.6 1696.6 1847.3 1694.9 1847 1691.2 1846.7 1691 1846.6 1689.5 1846.4 1689 1846.4 1688.2 1846.4 1687.1 1846.5 1686.4 1846.3 1685.6 1846.2 1685 1845.7 1684.1 1844.9 1684 1844.7 1683.7 1843.9 1683.7 1843.1 1684.2 1842 1684.7 1841.4 1685.3 1840.9 1686.1 1840.6 1686.7 1840.5 1687.4 1840.9 1688.5 1841.8 1689.1 1842.3 1689.9 1842.9 1690.5 1843.2 1691.2 1843.2 1692.2 1843.1 1692.9 1842.8 1693.6 1842.4 1694.3 1841.7 1694.7 1841 1694.7 1840.1 1694.5 1839 1694.1 1837.4 1693.8 1835.9 1693.4 1834.3 1693.5 1833 1693.5 1832.7 1693.5 1832.2 1693.6 1832 1693.8 1831.6 1694.4 1831.1 1695 1830.7 1695.9 1830.4 1696.5 1830.1 1697.3 1829.6 1698.1 1829.1 1698.7 1828.4 1699.1 1827.7 1699.3 1827 1699.4 1826.3 1699.5 1825.2 1699.2 1823.8 1699 1823.2 1698.8 1822.7 1698.1 1820.8 1697.9 1820.5 1696.2 1817.6 1695.7 1816.6 1695.5 1815.8 1695.4 1815.4 1695.2 1814.3 1695.5 1813.2 1696 1812.1 1696.8 1810.8 1697 1810.7 1697.6 1809.7 1698.3 1809.3 1699.1 1808.6 1699.4 1808.2 1699.5 1807.9 1699.5 1806.9 1698.9 1806.2 1698.7 1806.1 1698.3 1805.9 1697.7 1805.8 1697.3 1805.8 1695.8 1806 1694.8 1806.1 1693.7 1806.2 1692.5 1806.1 1691.7 1805.6 1690.9 1804.8 1690.3 1804 1690.3 1803 1690.5 1802.5 1690.8 1801.9 1691.5 1800.9 1692.4 1800.3 1693 1800 1693.6 1799.7 1695.4 1799.6 1697.8 1799.9 1698.9 1800 1699.9 1800.1 1700.7 1799.7 1701.8 1799.4 1704 1798.5 1704.7 1798.1 1705.7 1797.5 1708.3 1795.7 1710.1 1794.8 1711.1 1794 1712.3 1792.9 1713 1791.8 1713.6 1790.7 1713.9 1789.5 1714 1789.2 1714.1 1788 1714.1 1787.5 1714 1787.1 1713.8 1786.4 1713.6 1786 1713.3 1785.2 1713.1 1784.9 1712.8 1784.5 1712.8 1783.7 1712.8 1782.9 1712.3 1782.5 1711.7 1782.4 1711 1782.5 1710.4 1782.9 1709.5 1783.3 1707.2 1784.7 1703.3 1786.8 1702.5 1787.2 1701.6 1787.7 1701.3 1787.8 1700.2 1788.3 1699.6 1788.5 1699.1 1788.3 1698.6 1788 1698.4 1787.9 1698.1 1787.5 1697.8 1786.9 1697.6 1786.5 1697.4 1786.1 1697.2 1785 1697.3 1783.8 1697.6 1783.1 1698.6 1782 1699.3 1781.6 1700.4 1780.8 1701.5 1780.5 1702.2 1780.4 1703.4 1780.4 1703.7 1780.4 1704.4 1780.4 1705.3 1780.4 1705.5 1780.3 1706.4 1780 1707.2 1779.6 1707.8 1779.1 1708 1779 1708.3 1778.4 1708.6 1777.3 1708.7 1775.9 1708.8 1774.6 1709.2 1773.6 1709.9 1772.8 1710.2 1772.5 1711.8 1772 1712.7 1771.7 1713.5 1771.9 1714.4 1772.2 1715.4 1772.5 1716 1772.5 1716.4 1772.3 1717.3 1771.4 1718 1770.4 1718.4 1769.5 1718.6 1769.2 1719.7 1767.8 1720.3 1767.2 1721 1766.7 1721.8 1766.1 1722.4 1765.3 1722.7 1764.9 1722.9 1764.5 1723.1 1763.9 1723.5 1763.3 1724 1762.8 1724.5 1762 1724.5 1761.2 1724 1760.2 1723.8 1759.5 1723.4 1758.9 1722.9 1758.6 1722.6 1758.6 1722.2 1758.7 1721.8 1759 1721.5 1759.4 1721.3 1759.6 1721.1 1759.8 1720.5 1760.8 1719.9 1761.4 1719.3 1761.6 1718.9 1761.4 1718.9 1761.2 1718.7 1760.8 1718.6 1759.7 1718.5 1759.5 1718.1 1758.4 1718 1757.7 1717.6 1756.6 1716.5 1755.6 1715.4 1755.1 1714.8 1755.1 1713.6 1755 1713.2 1754.8 1712.2 1754.3 1710.6 1753.1 1710.4 1753 1709.5 1751.8 1707.5 1748.8 1707.4 1748.6 1706.5 1746.5 1706.1 1745 1705.8 1744 1705.7 1743.3 1705.6 1742.5 1705.7 1740.7 1705.7 1740.2 1705.7 1738.6 1705.8 1738.2 1705.9 1737.4 1705.9 1737 1706.2 1735.4 1706.3 1734.3 1706.1 1732.9 1706 1732.3 1705.9 1731.8 1705.2 1730.7 1704.9 1730 1704.4 1728.8 1704.4 1728.6 1704.5 1728.2 1704.8 1727.9 1705.1 1727.6 1705.6 1727.7 1706.3 1728 1706.5 1728.4 1707.3 1729.5 1708.8 1731.8 1709.4 1732.8 1709.7 1733.1 1710.1 1733.5 1710.8 1734.2 1711.4 1734.2 1711.7 1734.1 1711.9 1734 1712.5 1733.2 1712.6 1732.8 1712.7 1732.3 1712.7 1731.7 1712.7 1730.7 1712.9 1730.2 1713.2 1729.3 1713.7 1729 1714.3 1728.7 1715 1728.2 1715.2 1728.1 1715.6 1727.6 1716.1 1727 1716.1 1726.3 1715.9 1725.6 1715.4 1724.9 1714.6 1724.2 1714.5 1724 1714.3 1723.7 1714.2 1723.4 1714.1 1722.9 1714.4 1722 1715 1721.3 1715.7 1720.9 1716.2 1720.4 1716.5 1720.1 1716.7 1719.6 1717 1718.6 1717.2 1718.1 1717.6 1716.9 1717.9 1716.3 1718.5 1715.6 1719.3 1714.8 1720.4 1714.2 1721.2 1713.7 1721.6 1713.6 1722.2 1713.6 1723.4 1713.7 1724.3 1714 1725 1714.5 1725.3 1714.8 1725.6 1715.2 1725.8 1716.1 1725.5 1717 1725.1 1717.7 1724.6 1718.6 1724.5 1718.9 1724.4 1719 1723.9 1720.1 1723.3 1721.2 1723.1 1722.3 1723.3 1722.9 1723.4 1723.4 1723.9 1724 1724.3 1724.3 1724.5 1724.5 1725.5 1724.3 1725.8 1724.1 1726.4 1723.7 1727.1 1722.6 1727.7 1721.1 1728.1 1720.5 1728.4 1720.2 1729.1 1719.4 1729.6 1718.9 1729.9 1718.6 1730.4 1718.1 1731.1 1717.1 1731.7 1715.6 1732.5 1714 1733.1 1712.8 1733.7 1711.2 1734.1 1710.3 1734.7 1709.5 1735.7 1709.2 1736.3 1709.3 1737 1709.8 1737.3 1710.2 1737.6 1710.6 1737.9 1712.1 1737.9 1713 1737.9 1713.6 1737.7 1714.5 1737.5 1715.3 1737.2 1717.1 1737.7 1718.5 1737.9 1719 1738.1 1719.3 1738.9 1720.4 1739.5 1721.2 1739.9 1721.5 1740.2 1721.7 1741 1721.8 1741.6 1721.8 1742.5 1721.4 1743.4 1720.6 1744.6 1718.4 1745.3 1717.1 1745.9 1715.7 1746.2 1714.3 1746.3 1714 1746.4 1713.1 1746.4 1711.8 1746.4 1710.1 1746.2 1708.8 1746.2 1708.1 1746.2 1707.5 1746.3 1705.6 1746.7 1702.9 1747 1701.7 1747.2 1700.5 1747.7 1699.5 1748.1 1698.6 1748.3 1698.1 1748.6 1697.6 1749.1 1696.7 1749.3 1696.5 1750 1695.7 1750.4 1694.7 1751 1693.8 1751.8 1692.7 1752.5 1692 1753.6 1691.2 1756.5 1690.2 1758.4 1689.4 1759.5 1689 1760 1688.6 1760.3 1688.4 1761.2 1687.5 1762 1686.7 1762.3 1686.2 1762.5 1685.7 1763 1684.6 1763.1 1684.5 1763.5 1683.8 1764.4 1682.4 1765.4 1680.9 1766.4 1679.5 1767.8 1677.4 1769 1675.7 1769.4 1674.7 1769.6 1674.3 1769.6 1674.1 1769.7 1673.6 1769.8 1672.7 1769.9 1671.9 1769.9 1670.5 1770 1668.9 1770 1668.5 1770.1 1667.5 1770.1 1667.2 1770.2 1666.8 1770.4 1665.6 1770.7 1664.8 1771.5 1664.1 1772.1 1663.5 1772.8 1662.7 1772.9 1662.1 1772.9 1661.7 1772.8 1661.2 1772.7 1661 1772.4 1660.6 1772.1 1660.2 1771.8 1660 1771.4 1659.8 1771.2 1659.7 1770.4 1659.6 1769.6 1659.6 1768.5 1659.4 1767.9 1659.3 1767.7 1659.2 1767.5 1659.2 1767.1 1659 1766.8 1658.7 1766.7 1658.5 1766.6 1657.4 1766.6 1657.1 1766.6 1656.8 1766.9 1655.6 1767.4 1654.6 1768 1653.6 1768.1 1653.5 1769 1652.5 1769.8 1651.7 1770.7 1651.1 1771.3 1651 1772.2 1650.8 1773.1 1650.8 1773.2 1650.8 1774.1 1650.8 1775.5 1650.6 1776.4 1650.6 1777.6 1650.5 1778.7 1650.4 1780.6 1649.5 1781.2 1649.2 1782.6 1648.4 1783.9 1647.6 1784.5 1647.2 1785.6 1646.2 1785.8 1645.9 1786.3 1645 1787.1 1643.8 1787.5 1642.7 1788 1641.8 1788.4 1641.1 1788.7 1640.8 1789.3 1640.8 1789.6 1640.8 1789.7 1640.9 1790.1 1641.1 1790.7 1641.6 1791.3 1641.9 1791.7 1642 1792.1 1642.1 1792.7 1642.1 1793.1 1642 1793.8 1641.7 1794.5 1641.4 1795 1640.7 1795.3 1640 1795.4 1639.2 1795.2 1638.3 1795 1637.5 1794.8 1637.1 1794.5 1636.7 1793.9 1635.9 1793.2 1635.5 1792.7 1634.9 1792.3 1634.1 1791.9 1633.5 1791.3 1632.3 1790.7 1630.9 1789.7 1629.5 1789 1628.4 1788.9 1628.1 1788.9 1627.8 1789.1 1627.2 1789.3 1627 1790.1 1626.2 1791 1625.4 1791.6 1625.1 1792.4 1624.6 1793.2 1623.5 1793.3 1623.3 1793.5 1622.6 1793.5 1621.6 1793.7 1620.7 1793.9 1620.1 1793.9 1619.8 1794 1619.4 1794.3 1619 1794.5 1618.8 1794.6 1618.7 1794.9 1618.5 1795.6 1618 1796.1 1617.6 1796.4 1617 1796.8 1616.1 1796.8 1615.4 1796.7 1614.6 1796.6 1613.7 1796.6 1613.2 1796.7 1612.5 1796.7 1612.2 1796.9 1611.7 1797.1 1611.5 1797.4 1611.1 1797.6 1611 1798 1611 1798.5 1611.2 1799.2 1611.8 1799.3 1611.9 1799.9 1612.3 1800.8 1612.6 1801.4 1612.7 1802.4 1612.8 1803.1 1612.8 1803.5 1612.5 1803.7 1611.9 1803.8 1611.5 1803.6 1610.6 1803.1 1609.8 1803 1609.7 1802.5 1609.5 1802.1 1609.3 1801.9 1609.2 1800.8 1608.8 1800.3 1608.1 1800.1 1607.7 1800 1607.3 1800.1 1606.2 1800.5 1605.1 1800.7 1604.4 1801 1603.8 1801.2 1603.1 1801.1 1602.5 1801.1 1601.9 1801.1 1601.1 1801.4 1600.5 1801.7 1599.8 1802.1 1599 1802.2 1598.9 1802.2 1597.5 1801.9 1596.6 1801.7 1595.9 1801.7 1595.2 1801.8 1595.1 1801.9 1594.6 1802.3 1594 1802.5 1593.9 1803 1593.4 1803.8 1593.2 1804.3 1592.9 1805 1592.4 1805.4 1591.7 1805.7 1590.9 1806 1589.6 1806.2 1588.7 1806.7 1587.6 1807.1 1586.6 1807.3 1586.2 1808.7 1585.1 1809.7 1584.5 1810.4 1584.1 1811.2 1583.7 1813.3 1582.9 1815 1582.4 1817.2 1582 1819.3 1581.5 1819.4 1581.4 1822 1580.5 1823.9 1579.8 1825.2 1578.5 1826.3 1577.4 1827.3 1576.1 1828 1574.1 1828.4 1572.2 1828.5 1571.5 1828.5 1571.2 1828.7 1570.1 1828.7 1569.9 1828.8 1569 1828.9 1568.7 1829.1 1567.9 1829.4 1567.2 1829.8 1566.4 1830.3 1565.5 1830.8 1564.8 1831.2 1564.1 1831.5 1563.3 1831.9 1562.7 1832.4 1561.7 1833 1560.7 1833.5 1560 1833.9 1559.6 1834.3 1558.8 1834.1 1558"/>
</svg>